# xmcd CD database file
#
# Track frame offsets:
#	150
#	15880
#	34385
#	48725
#	62225
#	78675
#	94483
#	107205
#	118995
#	131000
#	145273
#	159897
#	170683
#	188520
#	201495
#	218318
#	236013
#	249995
#	262778
#	279545
#	291365
#	307435
#
# Disc length: 4311 seconds
#
# Revision: 0
# Processed by: cddbd v1.5.2PL0 Copyright (c) Steve Scherf et al.
# Submitted via: CDex 1.70beta2
#
DISCID=4f10d516
DTITLE=ChartBreakers - ChartBreakers CGC-508
DYEAR=0000
DGENRE=Country
TTITLE0=Alabama - Jukebox In My Mind
TTITLE1=Bellamy Brothers - Old Hippie
TTITLE2=Mark Chesnutt - Broken Promise Land
TTITLE3=Desert Rose Band - Love Reunited
TTITLE4=Mickey Gilley - Stand By Me
TTITLE5=Tanya Tucker - Soon
TTITLE6=Clay Walker - What's It To You
TTITLE7=Sawyer Brown - Trouble On The Line
TTITLE8=Larry Stewart - Alright Already
TTITLE9=Doug Stone - Made For Lovin' You
TTITLE10=Doug Stone - Why Didn't I Think Of That
TTITLE11=George Strait - Heartland
TTITLE12=Alabama - Mountain Music
TTITLE13=Clint Black - Walkin' Away
TTITLE14=Garth Brooks - If Tomorrow Never Comes
TTITLE15=Mary-Chapin Carpenter - Quittin' Time
TTITLE16=Diamond Rio - Norma Jean Riley
TTITLE17=Joe Diffie - If The Devil Danced (In Empty Pockets)
TTITLE18=Judds - I Know Where I'm Going
TTITLE19=Patty Loveless - Timber I'm Falling In Love
TTITLE20=Matthews, Right and King - I Got A Love
TTITLE21=Paul Overstreet - Ball And Chain
EXTD=YEAR: 0000
EXTT0=
EXTT1=
EXTT2=
EXTT3=
EXTT4=
EXTT5=
EXTT6=
EXTT7=
EXTT8=
EXTT9=
EXTT10=
EXTT11=
EXTT12=
EXTT13=
EXTT14=
EXTT15=
EXTT16=
EXTT17=
EXTT18=
EXTT19=
EXTT20=
EXTT21=
PLAYORDER=
